<svg xmlns="http://www.w3.org/2000/svg" width="77" height="90" fill="none" viewBox="0 0 77 90"><g fill="#CFCCC7" opacity=".45"><path fill-rule="evenodd" d="M71.373 63.08c-4.066 6.33-24.469 5.752-32.912 5.752-8.442 0-27.049 0-32.912-5.753C.391 57.954 0 40.01 0 34.416s.39-23.539 5.55-28.59C11.411 0 30.018 0 38.46 0c8.444 0 27.05 0 32.913 5.827C76.532 10.877 77 28.822 77 34.417c0 5.592-.468 23.537-5.627 28.662zM67.307 9.866C63.788 6.37 49.56 5.75 38.46 5.75c-11.1 0-25.329.62-28.768 4.117-2.736 2.718-3.986 15.304-3.986 24.55 0 9.243 1.25 21.83 3.986 24.548 3.44 3.495 17.667 4.194 28.768 4.194 11.1 0 25.327-.7 28.846-4.194 2.736-2.719 3.908-15.305 3.908-24.549.001-9.245-1.172-21.83-3.908-24.549zm-5.941 32.006h-45.81L12.741 19.81l13.994 9.632 11.726-11.73 11.804 11.731 13.994-9.632-2.893 22.061zm-1.094 8.624H16.73l-.704-4.816h44.873l-.626 4.816zM49.797 35.193L38.461 24.006 27.127 35.193l-8.6-6.06 1.016 8.003h37.836l1.094-8.002-8.676 6.06z" clip-rule="evenodd"/><path d="M22.217 84.818c0 .38.053.717.159 1.01.115.282.264.522.446.717.192.185.408.326.648.424.24.098.49.147.75.147.335 0 .623-.028.863-.082.25-.054.47-.13.663-.228.106-.055.22-.12.346-.196a1.21 1.21 0 0 1 .403-.146c.26-.055.494-.033.706.065.21.098.389.282.532.554.183.337.226.674.13 1.01-.086.337-.254.62-.504.848-.403.37-.888.635-1.455.798A5.723 5.723 0 0 1 24.22 90a6.138 6.138 0 0 1-1.83-.277 4.48 4.48 0 0 1-1.598-.88 4.677 4.677 0 0 1-1.123-1.565c-.279-.64-.418-1.412-.418-2.314v-3.39c0-.901.14-1.667.418-2.297.288-.642.662-1.163 1.123-1.565a4.355 4.355 0 0 1 1.599-.896 6.138 6.138 0 0 1 1.83-.277c.643 0 1.204.076 1.684.228.49.152.874.342 1.153.57.297.24.504.538.619.897a1.33 1.33 0 0 1-.086 1.043c-.145.282-.337.483-.577.602a1.08 1.08 0 0 1-.734.098 1.847 1.847 0 0 1-.447-.146 5.558 5.558 0 0 0-.345-.196 2.313 2.313 0 0 0-.548-.163 4.256 4.256 0 0 0-.72-.049c-.26 0-.509.05-.749.147-.24.098-.456.244-.648.44a2.094 2.094 0 0 0-.447.717 2.835 2.835 0 0 0-.158.994v3.097zm9.779-6.927c.144-.456.389-.793.734-1.01a2.05 2.05 0 0 1 1.124-.342c.365 0 .715.114 1.051.342.346.228.586.565.72 1.01l3.76 11.832h-3.17l-.56-2.02h-3.703l-.547 2.02h-3.11l3.7-11.832zm.706 7.057h2.203l-1.094-4.058-1.11 4.058zm7.454 4.775V79.18c0-.468.033-.864.1-1.19.077-.326.202-.592.375-.799.173-.206.403-.353.691-.44.288-.097.648-.146 1.08-.146H47.2c.211 0 .389.043.533.13.144.087.264.201.36.342.096.142.163.3.202.473.048.174.072.342.072.505 0 .163-.024.332-.072.505a1.36 1.36 0 0 1-.202.457 1.03 1.03 0 0 1-.36.326 1.13 1.13 0 0 1-.533.114h-3.66c-.163 0-.273.032-.33.098-.059.054-.087.179-.087.374v2.054h3.701c.212 0 .39.043.533.13.144.087.264.201.36.343.096.14.164.298.202.472.048.174.072.342.072.505 0 .163-.024.332-.072.505a1.36 1.36 0 0 1-.202.457 1.03 1.03 0 0 1-.36.326 1.13 1.13 0 0 1-.533.114h-3.701v4.89h-2.967zm12.222-8.051h3.932c.21 0 .389.044.533.13.144.087.264.202.36.343.096.141.163.299.201.473a1.722 1.722 0 0 1 0 .977 1.36 1.36 0 0 1-.201.457c-.087.13-.207.239-.36.326a1.132 1.132 0 0 1-.533.114h-3.932v1.906c0 .196.028.326.086.392.058.054.168.081.331.081h3.788c.212 0 .39.044.533.13a.859.859 0 0 1 .36.326c.096.13.164.283.202.457a1.723 1.723 0 0 1 0 .994 1.348 1.348 0 0 1-.202.472 1.148 1.148 0 0 1-.36.343c-.144.087-.321.13-.533.13h-4.911c-.432 0-.792-.043-1.08-.13a1.512 1.512 0 0 1-.692-.457 1.906 1.906 0 0 1-.374-.798 5.996 5.996 0 0 1-.101-1.19v-7.97c0-.466.034-.863.1-1.189.078-.326.202-.592.375-.799.173-.206.404-.353.692-.44.288-.097.648-.146 1.08-.146h4.767c.212 0 .39.043.533.13.144.087.264.201.36.342.096.142.163.3.202.473.048.174.072.342.072.505 0 .163-.024.332-.072.505a1.364 1.364 0 0 1-.202.457 1.03 1.03 0 0 1-.36.326 1.13 1.13 0 0 1-.533.114h-3.644c-.163 0-.273.032-.331.098-.058.054-.086.179-.086.374v1.744z"/></g></svg>