<svg xmlns="http://www.w3.org/2000/svg" width="28" height="112" fill="none" viewBox="0 0 28 112"><path fill="#6B56E7" fill-rule="evenodd" d="M7 5.6A1.4 1.4 0 0 0 5.6 7v14A1.4 1.4 0 0 0 7 22.4h14a1.4 1.4 0 0 0 1.4-1.4V7A1.4 1.4 0 0 0 21 5.6H7zm7 3.36l4.368 4.536h-3.03v5.544h-2.812v-5.544H9.632L14 8.96z" clip-rule="evenodd"/><path fill="#3FC2C2" fill-rule="evenodd" d="M7 50.4A1.4 1.4 0 0 1 5.6 49V35A1.4 1.4 0 0 1 7 33.6h14a1.4 1.4 0 0 1 1.4 1.4v14a1.4 1.4 0 0 1-1.4 1.4H7zm5.198-9.684v6.415H9.8V36.4h2.052l4.316 6.352h.087V36.4h2.405v10.73h-2.044l-4.324-6.414h-.094z" clip-rule="evenodd"/><path fill="#EC708E" fill-rule="evenodd" d="M7 78.4A1.4 1.4 0 0 1 5.6 77V63A1.4 1.4 0 0 1 7 61.6h14a1.4 1.4 0 0 1 1.4 1.4v14a1.4 1.4 0 0 1-1.4 1.4H7zm7-3.36l4.368-4.536h-3.03V64.96h-2.812v5.544H9.632L14 75.04z" clip-rule="evenodd"/><path fill="#777" fill-opacity=".9" fill-rule="evenodd" d="M7 106.4a1.4 1.4 0 0 1-1.4-1.4V91A1.4 1.4 0 0 1 7 89.6h14a1.4 1.4 0 0 1 1.4 1.4v14a1.4 1.4 0 0 1-1.4 1.4H7zm13.3-9.8H7.7v3.5h12.6v-3.5z" clip-rule="evenodd"/></svg>