<svg xmlns="http://www.w3.org/2000/svg" width="152" height="127" fill="none" viewBox="0 0 152 127"><g clip-path="url(#a)"><path fill="#D68231" d="M108.325 24.481H95.781v-4.849h12.544a3.9 3.9 0 0 0 3.902-3.889 3.9 3.9 0 0 0-3.902-3.889h-3.788v-4.85h3.788c4.834 0 8.766 3.92 8.766 8.739 0 4.818-3.932 8.738-8.766 8.738z"/><path fill="#FFB819" d="M102.106.597c4.661 0 5.325 3.672 5.017 5.44C104.538 20.837 91.587 32.09 76 32.09c-15.587 0-28.538-11.253-31.123-26.053-.309-1.767.356-5.44 5.017-5.44h52.212zm40.564 36.414H9.328v87.159H142.67V37.011z"/><path fill="#000" d="M23.38 75.453H9.328v6.74H23.38v-6.74zm22.192-19.665H31.521v6.74h14.051v-6.74zm43.303-2.128H74.824v6.742h14.051V53.66zM67.21 41.22H53.157v6.742h14.051V41.22zm75.461 22.057H128.62v6.741h14.051v-6.74zm-2.318 41.422h-14.051v6.741h14.051v-6.741zm-29.539 6.307H96.762v6.741h14.052v-6.741zM85.863 91.965H71.81v6.741h14.052v-6.74zM29.184 110.36H15.132v6.741h14.052v-6.741z" opacity=".1"/><path fill="#00B3E3" d="M6.277 40.402v4.306c0 5.484 4.46 9.929 9.96 9.929 5.501 0 9.96-4.445 9.96-9.929v-4.306H6.278z"/><path fill="#fff" d="M26.198 40.402v4.306c0 5.484 4.46 9.929 9.96 9.929 5.501 0 9.96-4.445 9.96-9.929v-4.306h-19.92z"/><path fill="#00B3E3" d="M46.119 40.402v4.306c0 5.484 4.46 9.929 9.96 9.929 5.5 0 9.96-4.445 9.96-9.929v-4.306h-19.92z"/><path fill="#fff" d="M66.04 40.402v4.306c0 5.484 4.459 9.929 9.96 9.929 5.5 0 9.96-4.445 9.96-9.929v-4.306H66.04z"/><path fill="#00B3E3" d="M85.96 40.402v4.306c0 5.484 4.46 9.929 9.96 9.929 5.502 0 9.961-4.445 9.961-9.929v-4.306h-19.92z"/><path fill="#fff" d="M105.881 40.402v4.306c0 5.484 4.459 9.929 9.96 9.929 5.501 0 9.96-4.445 9.96-9.929v-4.306h-19.92z"/><path fill="#00B3E3" d="M125.802 40.402v4.306c0 5.484 4.459 9.929 9.96 9.929 5.501 0 9.96-4.445 9.96-9.929v-4.306h-19.92z"/><path fill="#333E48" d="M148.274 41.358a3.247 3.247 0 0 1-3.242 3.232H6.968a3.247 3.247 0 0 1-3.242-3.233v-7.601a3.247 3.247 0 0 1 3.242-3.233h138.063a3.247 3.247 0 0 1 3.243 3.233v7.602z"/><path fill="#fff" d="M126.25 66.647H82.402v57.523h43.848V66.647z"/><path fill="#00B3E3" d="M118.519 74.91H90.133v20.317h28.386V74.909z"/><path fill="#fff" d="M111.059 81.352H97.595V86.2h13.464v-4.85z"/><path fill="#333E48" d="M92.56 107.141a2.42 2.42 0 0 0 2.423-2.416 2.42 2.42 0 0 0-2.424-2.416 2.42 2.42 0 0 0-2.424 2.416 2.42 2.42 0 0 0 2.424 2.416zM152 125.098c0 .718-.589 1.306-1.31 1.306H1.31c-.72 0-1.31-.588-1.31-1.306v-4.674c0-.718.59-1.306 1.31-1.306h149.38c.721 0 1.31.588 1.31 1.306v4.674z"/><path fill="#A4A9AD" d="M132.402 119.117H76.251v7.286h56.151v-7.286z"/><path fill="#333E48" d="M71.743 66.647H19.986v35.66h51.757v-35.66z"/><path fill="#00B3E3" d="M52.644 75.32H39.086l-2.975 10.292h19.508l-2.975-10.291z"/><path fill="#fff" d="M48.296 66.647h-4.864v8.674h4.864v-8.674z"/><path fill="#00B3E3" d="M27.194 102.308v-7.08a2.428 2.428 0 0 1 2.432-2.425 2.429 2.429 0 0 1 2.433 2.424v7.081h-4.865zm32.478-.001v-7.08a2.429 2.429 0 0 1 2.433-2.425 2.428 2.428 0 0 1 2.432 2.425v7.08h-4.864z"/></g><defs><clipPath id="a"><path fill="#fff" d="M0 0h152v127H0z"/></clipPath></defs></svg>