<svg xmlns="http://www.w3.org/2000/svg" width="40" height="40" fill="none" viewBox="0 0 40 40"><path fill="#FFFCF9" d="M22.75 8a8.15 8.15 0 0 1 5.824 2.426A8.106 8.106 0 0 1 31 16.25a8.15 8.15 0 0 1-1.125 4.16 8.392 8.392 0 0 1-2.965 2.965 8.15 8.15 0 0 1-4.16 1.125 8.135 8.135 0 0 1-2.813-.492 8.45 8.45 0 0 1-2.46-1.418l-9.2 9.187A.72.72 0 0 1 7.75 32a.72.72 0 0 1-.527-.223A.72.72 0 0 1 7 31.25a.72.72 0 0 1 .223-.527l9.187-9.2a8.445 8.445 0 0 1-1.418-2.46 8.135 8.135 0 0 1-.492-2.813 8.15 8.15 0 0 1 1.125-4.16c.36-.61.79-1.164 1.29-1.664a8.39 8.39 0 0 1 1.675-1.301A8.152 8.152 0 0 1 22.75 8zm0 15a6.6 6.6 0 0 0 2.625-.527 6.936 6.936 0 0 0 2.145-1.453 6.77 6.77 0 0 0 1.44-2.145c.36-.82.54-1.695.54-2.625 0-.93-.18-1.805-.54-2.625a6.77 6.77 0 0 0-1.44-2.145 6.77 6.77 0 0 0-2.145-1.44 6.469 6.469 0 0 0-2.625-.54c-.93 0-1.805.18-2.625.54a6.77 6.77 0 0 0-2.145 1.44 6.936 6.936 0 0 0-1.453 2.145A6.594 6.594 0 0 0 16 16.25a6.6 6.6 0 0 0 .527 2.625c.36.82.844 1.535 1.453 2.145a6.936 6.936 0 0 0 2.145 1.453A6.6 6.6 0 0 0 22.75 23z"/></svg>