<svg xmlns="http://www.w3.org/2000/svg" width="27" height="24" fill="none" viewBox="0 0 27 24"><path fill="#fff" d="M24.363 18.825L21.078 16.9a.47.47 0 0 0-.646.178l-.593 1.043a.487.487 0 0 0 .173.659l3.285 1.925a.468.468 0 0 0 .646-.178l.592-1.043a.49.49 0 0 0-.172-.659zM20.429 6.922a.479.479 0 0 0 .287.225.467.467 0 0 0 .359-.047l3.285-1.925a.487.487 0 0 0 .172-.66l-.59-1.039a.479.479 0 0 0-.286-.225.467.467 0 0 0-.36.047l-3.284 1.925a.49.49 0 0 0-.173.659l.59 1.04zm5.181 3.99H21.8a.482.482 0 0 0-.477.483v1.21c0 .265.215.483.477.483h3.811a.482.482 0 0 0 .477-.483v-1.21a.482.482 0 0 0-.477-.483zM16.435 0a.908.908 0 0 0-.518.16L5.36 7.164H.476A.482.482 0 0 0 0 7.647v8.706a.48.48 0 0 0 .476.483H5.36l10.557 7.004a.94.94 0 0 0 .518.16.962.962 0 0 0 .956-.97V.97a.962.962 0 0 0-.956-.97z"/></svg>